<svg width="18" height="19" fill="none" xmlns="http://www.w3.org/2000/svg"><path d="M12.375 18.73h-6.75A5.626 5.626 0 010 13.103v-6.75A5.626 5.626 0 015.625.73h6.75A5.626 5.626 0 0118 6.354v6.75a5.626 5.626 0 01-5.625 5.625zm3.938-12.376a3.942 3.942 0 00-3.938-3.937h-6.75a3.942 3.942 0 00-3.938 3.937v6.75a3.942 3.942 0 003.938 3.938h6.75a3.942 3.942 0 003.938-3.938v-6.75z" fill="#fff"/><path d="M9 14.23a4.5 4.5 0 110-9.001 4.5 4.5 0 010 9zm0-7.313a2.816 2.816 0 00-2.813 2.812A2.816 2.816 0 009 12.542a2.816 2.816 0 002.813-2.813A2.816 2.816 0 009 6.917zM13.838 13.967a.6.6 0 110 1.2.6.6 0 010-1.2z" fill="#fff"/></svg>