<svg width="16" height="19" fill="none" xmlns="http://www.w3.org/2000/svg"><path d="M13.239 2.43C11.999 1.24 10.285.584 8.41.584c-2.863 0-4.625 1.173-5.598 2.158C1.614 3.956.926 5.567.926 7.163c0 2.004.838 3.542 2.242 4.114a.742.742 0 00.282.058c.296 0 .53-.194.612-.505.047-.178.157-.618.205-.809.102-.377.02-.558-.203-.82-.406-.48-.595-1.049-.595-1.788 0-2.196 1.634-4.529 4.664-4.529 2.405 0 3.898 1.366 3.898 3.566 0 1.388-.299 2.674-.842 3.62-.377.657-1.04 1.441-2.06 1.441-.44 0-.836-.18-1.086-.496-.235-.299-.313-.684-.218-1.085.107-.454.253-.927.394-1.385.258-.835.502-1.624.502-2.254 0-1.077-.662-1.8-1.647-1.8-1.252 0-2.233 1.271-2.233 2.895 0 .796.211 1.392.307 1.62-.158.669-1.095 4.642-1.273 5.391-.103.438-.722 3.892.303 4.168 1.152.31 2.182-3.056 2.286-3.436.085-.309.383-1.478.565-2.197.556.536 1.451.898 2.322.898 1.643 0 3.12-.74 4.16-2.08 1.007-1.302 1.563-3.116 1.563-5.109 0-1.557-.67-3.092-1.835-4.212z" fill="#fff"/></svg>