<svg width="94" height="38" fill="none" xmlns="http://www.w3.org/2000/svg"><path d="M22.049 13.612l-4.36 13.415h-3.313l-2.933-9.084-3.027 9.084H5.122L.742 13.612h3.2L6.95 23.04l3.141-9.43h2.857l3.046 9.506 3.104-9.505h2.951zM32.835 21.91c0 .039-.019.307-.057.805h-7.75c.14.639.47 1.144.99 1.514.52.37 1.168.556 1.943.556.533 0 1.002-.077 1.409-.23a3.538 3.538 0 001.161-.767l1.58 1.725c-.964 1.112-2.373 1.667-4.227 1.667-1.155 0-2.177-.223-3.065-.67-.889-.46-1.574-1.093-2.056-1.898-.483-.804-.724-1.718-.724-2.74 0-1.01.235-1.916.704-2.721a5.012 5.012 0 011.962-1.898c.838-.46 1.77-.69 2.799-.69 1.002 0 1.91.218 2.723.652a4.663 4.663 0 011.903 1.878c.47.805.705 1.744.705 2.817zm-5.312-3.085c-.673 0-1.238.192-1.695.575-.457.383-.736.907-.838 1.571h5.046c-.102-.651-.38-1.169-.838-1.552-.457-.396-1.015-.594-1.675-.594zM40.868 16.563c.952 0 1.815.224 2.59.671a4.633 4.633 0 011.847 1.859c.444.792.666 1.718.666 2.779 0 1.06-.222 1.993-.666 2.798a4.798 4.798 0 01-1.847 1.859c-.775.434-1.638.651-2.59.651-1.409 0-2.482-.447-3.218-1.341v1.188h-2.837v-14.22h2.97v5.002c.75-.83 1.778-1.246 3.085-1.246zm-.514 8.164c.762 0 1.384-.255 1.866-.766.495-.524.742-1.22.742-2.09 0-.868-.247-1.558-.742-2.069-.482-.524-1.104-.786-1.866-.786s-1.39.262-1.885.786c-.482.511-.724 1.201-.724 2.07 0 .869.242 1.565.724 2.089.495.51 1.123.766 1.885.766zM60.392 13.612v13.415h-3.085v-5.5h-6.055v5.5h-3.084V13.612h3.084v5.29h6.055v-5.29h3.085zM73.368 21.91c0 .039-.02.307-.057.805h-7.75c.14.639.47 1.144.99 1.514.52.37 1.168.556 1.942.556.534 0 1.003-.077 1.41-.23a3.536 3.536 0 001.161-.767l1.58 1.725c-.965 1.112-2.373 1.667-4.227 1.667-1.155 0-2.177-.223-3.065-.67-.889-.46-1.574-1.093-2.057-1.898-.482-.804-.723-1.718-.723-2.74 0-1.01.235-1.916.704-2.721a5.013 5.013 0 011.961-1.898c.838-.46 1.771-.69 2.8-.69 1.002 0 1.91.218 2.722.652a4.662 4.662 0 011.904 1.878c.47.805.705 1.744.705 2.817zm-5.313-3.085c-.672 0-1.237.192-1.694.575-.457.383-.736.907-.838 1.571h5.046c-.102-.651-.38-1.169-.838-1.552-.457-.396-1.015-.594-1.675-.594zM78.185 18.078a3.316 3.316 0 011.428-1.131c.61-.256 1.308-.383 2.095-.383v2.76c-.33-.026-.552-.04-.667-.04-.85 0-1.516.244-1.999.729-.482.473-.723 1.188-.723 2.146v4.868h-2.97v-10.31h2.836v1.36zM88.253 27.18c-1.08 0-2.05-.223-2.913-.67a5.123 5.123 0 01-2-1.898c-.482-.804-.723-1.718-.723-2.74 0-1.022.241-1.936.723-2.74a4.988 4.988 0 012-1.879c.863-.46 1.834-.69 2.913-.69 1.079 0 2.043.23 2.894.69a4.987 4.987 0 012 1.878c.482.805.723 1.719.723 2.741s-.241 1.936-.724 2.74a5.122 5.122 0 01-2 1.898c-.85.447-1.814.67-2.893.67zm0-2.453c.761 0 1.383-.255 1.866-.766.495-.524.742-1.22.742-2.089s-.247-1.559-.742-2.07c-.483-.524-1.105-.785-1.866-.785-.762 0-1.39.261-1.885.785-.495.511-.743 1.201-.743 2.07 0 .869.248 1.565.743 2.089.495.511 1.123.767 1.885.767z" fill="#FFD22E"/><path d="M60.906 37.793a5.332 5.332 0 01-1.665-.263c-.529-.182-.946-.416-1.25-.7l.402-.855c.29.263.66.478 1.11.646.457.161.924.241 1.403.241.631 0 1.103-.106 1.415-.317.311-.22.468-.508.468-.866a.823.823 0 00-.262-.635 1.615 1.615 0 00-.63-.383 10.965 10.965 0 00-1.056-.296 11.188 11.188 0 01-1.393-.416 2.37 2.37 0 01-.903-.635c-.247-.292-.37-.682-.37-1.172 0-.409.105-.777.316-1.106.217-.328.544-.591.979-.788.435-.197.975-.296 1.621-.296a5.1 5.1 0 011.328.175 3.52 3.52 0 011.12.504l-.359.876a3.793 3.793 0 00-1.023-.46 3.679 3.679 0 00-1.066-.164c-.616 0-1.08.113-1.393.34-.304.226-.457.518-.457.876 0 .262.087.478.261.646.175.16.389.288.642.383.262.088.614.182 1.056.285.573.138 1.033.277 1.382.416.348.138.645.35.892.635.254.285.38.668.38 1.15 0 .401-.108.77-.326 1.106-.217.328-.547.591-.99.788-.442.19-.986.285-1.632.285zM67.805 37.772a3.217 3.217 0 01-1.578-.384 2.821 2.821 0 01-1.077-1.051 3.011 3.011 0 01-.392-1.533c0-.57.13-1.077.392-1.523.26-.452.62-.803 1.077-1.05.464-.256.99-.384 1.578-.384.522 0 .986.106 1.392.318.414.211.733.518.958.92l-.794.514a1.78 1.78 0 00-.675-.624 1.915 1.915 0 00-.892-.208c-.377 0-.718.084-1.023.252a1.826 1.826 0 00-.707.723c-.167.306-.25.66-.25 1.062 0 .408.083.77.25 1.084.174.307.41.544.707.712.305.168.646.252 1.023.252.326 0 .624-.07.892-.208.268-.14.493-.347.674-.625l.795.504a2.317 2.317 0 01-.958.931c-.406.212-.87.318-1.392.318zM74.513 31.846c.732 0 1.313.216 1.74.646.436.424.653 1.048.653 1.873v3.34h-1.044v-3.22c0-.562-.134-.985-.403-1.27-.268-.285-.653-.427-1.153-.427-.566 0-1.012.168-1.338.504-.327.328-.49.803-.49 1.423v2.99h-1.045v-8.126h1.045v3.143c.218-.277.5-.493.849-.646.355-.153.75-.23 1.186-.23zM81.341 37.772a3.11 3.11 0 01-1.545-.384 2.82 2.82 0 01-1.077-1.051 3.08 3.08 0 01-.38-1.533c0-.57.126-1.077.38-1.523.261-.452.62-.803 1.077-1.05a3.112 3.112 0 011.545-.384c.573 0 1.085.128 1.534.383.457.248.813.599 1.067 1.052.26.445.391.952.391 1.522 0 .57-.13 1.08-.391 1.533-.254.445-.61.796-1.067 1.051a3.05 3.05 0 01-1.534.384zm0-.92c.37 0 .7-.084.99-.252.298-.175.53-.416.697-.723a2.25 2.25 0 00.25-1.073c0-.402-.083-.756-.25-1.063a1.754 1.754 0 00-.697-.722 1.94 1.94 0 00-.99-.252 2 2 0 00-1 .252c-.29.168-.523.409-.697.723-.167.306-.25.66-.25 1.062 0 .401.083.759.25 1.073.174.306.406.547.696.723.298.168.631.252 1.001.252zM88.245 37.772a3.11 3.11 0 01-1.545-.384 2.822 2.822 0 01-1.077-1.051 3.08 3.08 0 01-.38-1.533c0-.57.126-1.077.38-1.523.261-.452.62-.803 1.077-1.05a3.112 3.112 0 011.545-.384c.573 0 1.085.128 1.534.383a2.65 2.65 0 011.067 1.052c.26.445.391.952.391 1.522 0 .57-.13 1.08-.391 1.533-.254.445-.61.796-1.067 1.051a3.05 3.05 0 01-1.534.384zm0-.92c.37 0 .7-.084.99-.252a1.85 1.85 0 00.697-.723c.166-.314.25-.672.25-1.073 0-.402-.084-.756-.25-1.063a1.755 1.755 0 00-.697-.722 1.94 1.94 0 00-.99-.252 2 2 0 00-1 .252c-.291.168-.523.409-.697.723-.167.306-.25.66-.25 1.062 0 .401.083.759.25 1.073.174.306.406.547.696.723a2 2 0 001.001.252zM92.684 29.58h1.045v8.125h-1.045v-8.126zM8.606.151H5.991v6.042H7.39V4.527h1.216c1.614 0 2.624-.837 2.624-2.183C11.23.989 10.22.15 8.606.15zM8.53 3.388h-1.14V1.29h1.14c.854 0 1.286.388 1.286 1.053 0 .656-.432 1.044-1.286 1.044zM16.475 6.193h1.467L15.241.15H13.86l-2.693 6.042H12.6l.535-1.295h2.805l.535 1.295zm-2.891-2.356l.958-2.313.958 2.313h-1.916zM22.178 3.043c.535-.233.872-.7.872-1.286C23.05.66 21.842.022 20.444.022c-.69 0-1.416.155-2.072.492l.423 1.087a3.388 3.388 0 011.623-.431c.682 0 1.217.259 1.217.75 0 .398-.328.648-.898.648h-1.372v1.053h1.476c.63 0 1.044.224 1.044.682 0 .56-.647.854-1.441.854-.587 0-1.26-.155-1.813-.492L18.2 5.666c.75.432 1.605.63 2.408.63 1.45 0 2.692-.655 2.692-1.795 0-.682-.422-1.217-1.122-1.458zM27.022.151h-2.615v6.042h1.398V4.527h1.217c1.614 0 2.624-.837 2.624-2.183 0-1.355-1.01-2.193-2.624-2.193zm-.077 3.237h-1.14V1.29h1.14c.854 0 1.286.388 1.286 1.053 0 .656-.432 1.044-1.286 1.044zM34.891 6.193h1.467L33.657.15h-1.381l-2.693 6.042h1.433l.535-1.295h2.805l.535 1.295zM32 3.837l.958-2.313.958 2.313H32zM37.16 6.193h2.865c1.553 0 2.442-.7 2.442-1.907 0-1.157-.785-1.778-2.244-1.778H38.55V1.265h3.487V.15h-4.877v6.042zm1.389-1.036V3.535h1.398c.734 0 1.105.259 1.105.794 0 .543-.389.828-1.105.828H38.55zM46.414 6.296c1.899 0 3.305-1.32 3.305-3.124S48.313.048 46.414.048c-1.907 0-3.306 1.329-3.306 3.124 0 1.795 1.399 3.124 3.306 3.124zm0-1.19c-1.079 0-1.89-.786-1.89-1.934s.811-1.933 1.89-1.933c1.079 0 1.89.785 1.89 1.933 0 1.148-.811 1.933-1.89 1.933zM55.33.151h-5.24v1.14h1.925v4.902h1.381V1.29h1.934V.15zM60.53 6.193h1.467L59.296.15h-1.381l-2.693 6.042h1.433l.535-1.295h2.805l.535 1.295zM57.64 3.837l.958-2.313.958 2.313h-1.916zM66.941.151v2.382h-2.744V.151h-1.399v6.042h1.399V3.716h2.744v2.477h1.398V.15h-1.398zM72.736 6.296c1.898 0 3.305-1.32 3.305-3.124S74.634.048 72.736.048c-1.908 0-3.306 1.329-3.306 3.124 0 1.795 1.398 3.124 3.306 3.124zm0-1.19c-1.08 0-1.89-.786-1.89-1.934s.81-1.933 1.89-1.933c1.078 0 1.89.785 1.89 1.933 0 1.148-.812 1.933-1.89 1.933zM83.748 3.043c.535-.26.855-.717.855-1.33 0-1-.829-1.562-2.227-1.562h-2.814v6.042h2.978c1.528 0 2.348-.647 2.348-1.7 0-.734-.406-1.235-1.14-1.45zm-2.796-1.856h1.303c.604 0 .924.259.924.734 0 .483-.32.733-.924.733h-1.303V1.187zm1.536 3.97h-1.536V3.63h1.536c.648 0 .984.241.984.75 0 .527-.336.777-.984.777z" fill="#fff"/></svg>